<svg xmlns="http://www.w3.org/2000/svg" fill="none" viewBox="0 0 147 147">
  <defs/>
  <path fill="#000" d="M66.58 106.15l1.92 4.68 19.37 16.73 10.7-10.29 25.49 22.02 19.95-19.2-4.89-12.05-39.26-33.92 45.6-43.88-4.9-12.06-19.38-16.73-40.85 39.31-1.9-4.66-19.38-16.75-10.7 10.3-25.5-22.03-19.94 19.2 4.9 12.05 39.25 33.92-45.6 43.9 4.89 12.04 19.38 16.72 40.85-39.3z"/>
  <path stroke="#fff" stroke-linecap="round" stroke-linejoin="round" stroke-width="1.5" d="M20.82 133.41L140.57 18.18M2.9 26.83l116.27 100.41M58.48 55.28l29.39 72.28M25.74 145.45l49.88-48M51.34 68.67L1.46 116.7M75.62 97.44l48.44 41.85M139.12 108.04L90.68 66.19M99.86 74.12l45.6-43.88M47.06 72.8l-45.6 43.89M25.74 145.45l40.84-39.3M121.18 1.45L80.33 40.76M7.82 38.87l39.24 33.92M139.12 108.04L99.86 74.12M48.35 29.66L22.85 7.62M98.57 117.27l25.49 22.02M78.44 36.1l12.24 30.1M39.1 38.56l12.24 30.11M124.06 139.29l19.95-19.2M59.05 19.35L39.1 38.55M139.12 108.04l-19.95 19.2M2.9 26.83l19.96-19.2M58.48 55.28L78.44 36.1M87.87 127.56L68.5 110.83M78.44 36.1L59.05 19.35M121.18 1.45l19.39 16.73M39.1 38.56l19.38 16.72M20.82 133.41L1.46 116.7M6.35 128.73l19.38 16.73M59.05 19.35l-10.7 10.3M98.57 117.27l-10.7 10.29M144.01 120.08l-4.89-12.04M25.73 145.45l-4.9-12.04M1.46 116.69l4.89 12.04M140.57 18.18l4.89 12.06M7.82 38.87L2.9 26.83M119.17 127.25l4.89 12.04M78.44 36.1l1.9 4.66M66.58 106.15l1.92 4.68"/>
</svg>
