<svg xmlns="http://www.w3.org/2000/svg" fill="none" viewBox="0 0 162 170">
  <defs/>
  <path fill="#000" d="M33.37 102L9.23 125.65l11.58 24.65 21.66 2.12 31.8-31.14 21.4 45.61 21.67 2.12 18.39-18.01-19.17-40.87 26.06 2.57L161 94.67l-11.56-24.64-20.81-2.04 24.15-23.63-11.59-24.65-21.68-2.12-31.77 31.14-21.4-45.61L44.65 1 26.27 19.01l19.17 40.84-26.06-2.54L1 75.33l11.56 24.64 20.81 2.04z"/>
  <path stroke="#fff" stroke-linecap="round" stroke-linejoin="round" stroke-width="1.5" d="M44.66 1l69.39 147.87M131.1 42.24L20.8 150.3M161 94.67L30.95 81.96M135.73 150.99L106.8 89.38M95.67 166.88l-28.91-61.6M73.56 62.6l45.95-45M106.8 89.38l45.97-45.02M19.38 57.31l54.18 5.3M12.56 99.97l54.2 5.3M87.74 48.73L66.34 3.12M95.67 166.88l-21.4-45.6M45.44 59.88L26.27 19M135.73 150.99l-19.17-40.87M87.74 48.73l31.77-31.14M42.47 152.4l31.8-31.13M9.23 125.64L33.37 102M128.63 68l24.15-23.64M30.95 81.96L19.38 57.3M152.78 44.36l-11.59-24.65M119.51 17.6l11.58 24.64M1 75.33l11.56 24.64M149.44 70.03L161 94.67M20.8 150.29L9.24 125.64M19.38 57.31l26.06 2.57M116.56 110.13l26.06 2.56M117.34 169l18.39-18.01M114.05 148.87l-18.38 18.01M19.38 57.31L1 75.33M12.56 99.97l18.39-18.01M161 94.67l-18.38 18.02M26.27 19.01L44.66 1M42.47 152.4L20.8 150.3M95.67 166.88l21.67 2.12M44.66 1l21.67 2.12M135.73 150.99l-21.68-2.12M141.2 19.71L119.5 17.6M131.1 42.24l21.68 2.12M12.56 99.97l20.81 2.04M128.63 68l20.8 2.03"/>
</svg>
